<svg id="visual" viewBox="0 0 450 900" width="450" height="900" xmlns="http://www.w3.org/2000/svg" xmlns:xlink="http://www.w3.org/1999/xlink" version="1.1"><path d="M382 900L381.2 878.5C380.3 857 378.7 814 379.3 771.2C380 728.3 383 685.7 387.2 642.8C391.3 600 396.7 557 397.3 514.2C398 471.3 394 428.7 391.2 385.8C388.3 343 386.7 300 386.3 257.2C386 214.3 387 171.7 389.5 128.8C392 86 396 43 398 21.5L400 0L450 0L450 21.5C450 43 450 86 450 128.8C450 171.7 450 214.3 450 257.2C450 300 450 343 450 385.8C450 428.7 450 471.3 450 514.2C450 557 450 600 450 642.8C450 685.7 450 728.3 450 771.2C450 814 450 857 450 878.5L450 900Z" fill="#7fb3db"></path><path d="M409 900L408.3 878.5C407.7 857 406.3 814 402.7 771.2C399 728.3 393 685.7 390.8 642.8C388.7 600 390.3 557 393.5 514.2C396.7 471.3 401.3 428.7 403 385.8C404.7 343 403.3 300 400 257.2C396.7 214.3 391.3 171.7 392.7 128.8C394 86 402 43 406 21.5L410 0L450 0L450 21.5C450 43 450 86 450 128.8C450 171.7 450 214.3 450 257.2C450 300 450 343 450 385.8C450 428.7 450 471.3 450 514.2C450 557 450 600 450 642.8C450 685.7 450 728.3 450 771.2C450 814 450 857 450 878.5L450 900Z" fill="#6794bf"></path><path d="M401 900L403.2 878.5C405.3 857 409.7 814 410.2 771.2C410.7 728.3 407.3 685.7 405.3 642.8C403.3 600 402.7 557 403.8 514.2C405 471.3 408 428.7 407 385.8C406 343 401 300 398.3 257.2C395.7 214.3 395.3 171.7 396.2 128.8C397 86 399 43 400 21.5L401 0L450 0L450 21.5C450 43 450 86 450 128.8C450 171.7 450 214.3 450 257.2C450 300 450 343 450 385.8C450 428.7 450 471.3 450 514.2C450 557 450 600 450 642.8C450 685.7 450 728.3 450 771.2C450 814 450 857 450 878.5L450 900Z" fill="#5076a3"></path><path d="M417 900L417.5 878.5C418 857 419 814 419 771.2C419 728.3 418 685.7 417 642.8C416 600 415 557 414.3 514.2C413.7 471.3 413.3 428.7 412.8 385.8C412.3 343 411.7 300 412.3 257.2C413 214.3 415 171.7 415 128.8C415 86 413 43 412 21.5L411 0L450 0L450 21.5C450 43 450 86 450 128.8C450 171.7 450 214.3 450 257.2C450 300 450 343 450 385.8C450 428.7 450 471.3 450 514.2C450 557 450 600 450 642.8C450 685.7 450 728.3 450 771.2C450 814 450 857 450 878.5L450 900Z" fill="#3c5987"></path><path d="M421 900L421.7 878.5C422.3 857 423.7 814 425.3 771.2C427 728.3 429 685.7 429.5 642.8C430 600 429 557 428.5 514.2C428 471.3 428 428.7 426.7 385.8C425.3 343 422.7 300 421 257.2C419.3 214.3 418.7 171.7 420.3 128.8C422 86 426 43 428 21.5L430 0L450 0L450 21.5C450 43 450 86 450 128.8C450 171.7 450 214.3 450 257.2C450 300 450 343 450 385.8C450 428.7 450 471.3 450 514.2C450 557 450 600 450 642.8C450 685.7 450 728.3 450 771.2C450 814 450 857 450 878.5L450 900Z" fill="#293d6b"></path><path d="M436 900L434.3 878.5C432.7 857 429.3 814 429.5 771.2C429.7 728.3 433.3 685.7 434.5 642.8C435.7 600 434.3 557 434.2 514.2C434 471.3 435 428.7 435.2 385.8C435.3 343 434.7 300 434 257.2C433.3 214.3 432.7 171.7 431.8 128.8C431 86 430 43 429.5 21.5L429 0L450 0L450 21.5C450 43 450 86 450 128.8C450 171.7 450 214.3 450 257.2C450 300 450 343 450 385.8C450 428.7 450 471.3 450 514.2C450 557 450 600 450 642.8C450 685.7 450 728.3 450 771.2C450 814 450 857 450 878.5L450 900Z" fill="#182350"></path><path d="M445 900L444.3 878.5C443.7 857 442.3 814 440.8 771.2C439.3 728.3 437.7 685.7 436.5 642.8C435.3 600 434.7 557 434.7 514.2C434.7 471.3 435.3 428.7 436 385.8C436.7 343 437.3 300 437.2 257.2C437 214.3 436 171.7 436.8 128.8C437.7 86 440.3 43 441.7 21.5L443 0L450 0L450 21.5C450 43 450 86 450 128.8C450 171.7 450 214.3 450 257.2C450 300 450 343 450 385.8C450 428.7 450 471.3 450 514.2C450 557 450 600 450 642.8C450 685.7 450 728.3 450 771.2C450 814 450 857 450 878.5L450 900Z" fill="#0a0735"></path></svg>